<svg width="121" height="44" viewBox="0 0 121 44" fill="none" xmlns="http://www.w3.org/2000/svg">
<path d="M88.7002 0.0996094C99.5485 0.0996094 110.2 0.0996094 121 0.0996094C121 3.28513 121 6.47065 121 9.80549C120.509 9.85526 119.92 9.95481 119.38 9.95481C114.078 9.95481 108.777 9.95481 103.475 9.95481C102.886 9.95481 102.297 10.0046 101.61 10.0544C101.61 12.2444 101.61 14.3349 101.61 16.5747C106.764 16.7738 111.918 16.5249 117.22 16.724C117.367 19.8598 117.269 22.896 117.269 26.0815C116.631 26.1313 116.14 26.1811 115.6 26.1811C111.575 26.1811 107.599 26.1811 103.574 26.1811C102.935 26.1811 102.297 26.2308 101.61 26.2806C101.61 28.7195 101.61 31.0589 101.61 33.6471C108.09 33.7467 114.471 33.6471 121 33.6969C121 37.1313 121 40.4163 121 43.801C110.249 43.801 99.5485 43.801 88.7002 43.801C88.7002 29.267 88.7002 14.7829 88.7002 0.0996094Z" fill="#5852FE"/>
<path d="M52.6709 0.0996094C63.5192 0.0996094 74.1711 0.0996094 84.9703 0.0996094C84.9703 3.3349 84.9703 6.52042 84.9703 9.90504C78.4908 9.90504 72.0603 9.90504 65.4827 9.90504C65.2372 12.1946 65.3354 14.2851 65.4336 16.6245C70.6859 16.6245 75.8891 16.6245 81.1906 16.6245C81.1906 19.8598 81.1906 22.9458 81.1906 26.1811C75.9873 26.1811 70.8823 26.1811 65.5808 26.1811C65.2372 28.7195 65.3845 31.0589 65.4827 33.6471C72.0603 33.7964 78.4908 33.6471 85.0685 33.7467C85.0685 37.1811 85.0685 40.4661 85.0685 43.801C74.2693 43.801 63.5683 43.801 52.72 43.801C52.6709 29.2173 52.6709 14.7829 52.6709 0.0996094Z" fill="#5852FE"/>
<path d="M48.8416 0.0995784C48.8416 3.33487 48.8416 6.47062 48.8416 9.80546C48.2526 9.85523 47.6635 9.90501 47.1236 9.90501C41.8712 9.90501 36.6189 9.90501 31.3666 9.90501C30.7284 9.90501 30.1394 10.0046 29.4522 10.1041C29.4522 12.3439 29.4522 14.3846 29.4522 16.6742C34.7536 16.6742 39.9077 16.6742 45.2092 16.6742C45.2092 19.8598 45.2092 22.896 45.2092 26.0815C44.6692 26.1313 44.1292 26.181 43.6384 26.181C39.5151 26.181 35.4408 26.181 31.3175 26.181C30.7284 26.181 30.1885 26.2806 29.5013 26.3303C29.5013 28.7693 29.5013 31.0589 29.5013 33.4978C30.0903 33.5475 30.6794 33.6471 31.2193 33.6471C36.3735 33.6471 41.5276 33.6471 46.6818 33.6471C47.369 33.6471 48.0562 33.6471 48.9398 33.6471C49.1361 37.0317 48.9889 40.3168 49.038 43.7014C38.2388 43.7014 27.5869 43.7014 16.9349 43.7014C16.5913 42.6064 16.5422 1.64256 16.8858 0.0498047C27.3905 0.0995784 38.0424 0.0995784 48.8416 0.0995784Z" fill="#5852FE"/>
<path d="M0 0C4.46694 0 8.73753 0 13.1063 0C13.1063 14.6833 13.1063 29.267 13.1063 44C8.73753 44 4.41785 44 0 44C0 29.3167 0 14.733 0 0Z" fill="#5852FE"/>
</svg>
