<svg width="81" height="88" viewBox="0 0 81 88" fill="none" xmlns="http://www.w3.org/2000/svg">
<path d="M77.705 6.8H67.405C67.505 5.4 67.505 4.2 67.605 3.2C67.605 1.5 66.305 0 64.505 0H16.305C14.605 0 13.205 1.4 13.205 3.2C13.205 4.2 13.305 5.4 13.405 6.8H3.10504C1.30504 6.8 -0.0949585 8.3 0.00504151 10C0.505041 18.5 3.90504 41.3 26.305 49.5C27.205 50.6 28.105 51.7 29.105 52.7V55.2C29.105 56 29.805 56.7 30.605 56.7H34.905V70.7H30.505C29.705 70.7 29.005 71.4 29.005 72.2V76.1H26.005C25.205 76.1 24.505 76.8 24.505 77.6V87.9H56.405V77.6C56.405 76.8 55.705 76.1 54.905 76.1H51.905V72.2C51.905 71.4 51.205 70.7 50.405 70.7H46.005V56.7H50.305C51.105 56.7 51.805 56 51.805 55.2V52.7C52.805 51.7 53.705 50.6 54.605 49.5C77.005 41.3 80.405 18.5 80.905 10C80.905 8.3 79.505 6.8 77.705 6.8ZM7.40504 14.1C8.00504 13.4 9.50504 13.3 11.005 13.5C12.205 13.6 13.205 14.1 14.105 14.7C15.005 22 16.805 31.1 20.305 39.2C7.90504 30.5 5.90504 15.7 7.40504 14.1ZM60.405 39.3C63.905 31.2 65.705 22.1 66.605 14.8C67.505 14.1 68.605 13.7 69.705 13.6C71.205 13.5 72.705 13.5 73.305 14.2C74.805 15.7 72.805 30.5 60.405 39.3Z" fill="white"/>
</svg>
